<?xml version="1.0" encoding="UTF-8"?>
<svg id="Layer_2" data-name="Layer 2" xmlns="http://www.w3.org/2000/svg" viewBox="0 0 619.05 103.02">
  <defs>
    <style>
      .cls-1 {
        fill: #1a1a1a;
      }
    </style>
  </defs>
  <g id="Camada_1" data-name="Camada 1">
    <g>
      <polygon class="cls-1" points="0 12.11 0 28.64 49.59 28.64 57.86 20.38 57.86 3.85 8.27 3.85 0 12.11"/>
      <path class="cls-1" d="M405.37,1.5c-1.17-1-2.8-1.5-4.9-1.5s-3.68.54-4.89,1.61c-1.21,1.07-1.82,2.45-1.82,4.13,0,1.86.59,3.3,1.78,4.3,1.19,1,2.83,1.5,4.93,1.5s3.67-.54,4.86-1.61c1.19-1.07,1.78-2.47,1.78-4.2,0-1.82-.58-3.23-1.75-4.23Z"/>
      <path class="cls-1" d="M427.48,82.82l-7.77,19.92h3.7l1.73-4.55h7.96l1.72,4.55h3.84l-7.71-19.92h-3.47ZM426.37,94.97l1.32-3.47c.13-.38.28-.81.44-1.28.16-.47.33-.97.5-1.48.17-.51.33-1.01.48-1.48.01-.04.03-.08.04-.12.15.49.32,1.02.5,1.59.19.58.36,1.11.53,1.61.16.49.29.85.38,1.08l1.34,3.56h-5.53Z"/>
      <path class="cls-1" d="M445.45,88c.56-.59,1.22-1.04,1.99-1.37.77-.32,1.59-.48,2.46-.48.59,0,1.16.09,1.72.27.56.18,1.1.45,1.62.8.52.35,1.03.78,1.52,1.29l2.36-2.59c-.51-.66-1.15-1.25-1.91-1.75-.76-.5-1.59-.9-2.5-1.18-.91-.28-1.85-.43-2.82-.43-1.42,0-2.74.26-3.95.77-1.21.51-2.28,1.23-3.19,2.16-.91.93-1.62,2.01-2.13,3.24-.51,1.23-.77,2.57-.77,4.01s.24,2.88.73,4.14c.48,1.26,1.16,2.35,2.03,3.27.87.92,1.91,1.63,3.1,2.12,1.19.49,2.51.74,3.95.74.93,0,1.86-.12,2.8-.36.94-.24,1.79-.56,2.55-.98.76-.42,1.37-.88,1.82-1.39l-1.82-2.93c-.42.42-.88.78-1.38,1.1-.5.31-1.05.55-1.64.73-.59.17-1.19.26-1.82.26-.97,0-1.85-.16-2.66-.47-.81-.31-1.5-.76-2.08-1.35-.58-.59-1.02-1.29-1.34-2.11-.31-.82-.47-1.73-.47-2.73s.16-1.88.48-2.69c.32-.81.76-1.5,1.32-2.09Z"/>
      <path class="cls-1" d="M464.91,88c.56-.59,1.22-1.04,1.99-1.37.77-.32,1.59-.48,2.46-.48.59,0,1.16.09,1.72.27.56.18,1.1.45,1.62.8.52.35,1.03.78,1.52,1.29l2.36-2.59c-.51-.66-1.15-1.25-1.91-1.75-.76-.5-1.59-.9-2.5-1.18-.91-.28-1.85-.43-2.82-.43-1.42,0-2.74.26-3.95.77-1.21.51-2.28,1.23-3.19,2.16-.91.93-1.62,2.01-2.13,3.24-.51,1.23-.77,2.57-.77,4.01s.24,2.88.73,4.14c.48,1.26,1.16,2.35,2.03,3.27.87.92,1.91,1.63,3.1,2.12,1.19.49,2.51.74,3.95.74.93,0,1.86-.12,2.8-.36.94-.24,1.79-.56,2.55-.98.76-.42,1.37-.88,1.82-1.39l-1.82-2.93c-.42.42-.88.78-1.38,1.1-.5.31-1.05.55-1.64.73-.59.17-1.19.26-1.82.26-.97,0-1.85-.16-2.66-.47-.81-.31-1.5-.76-2.08-1.35-.58-.59-1.02-1.29-1.34-2.11-.31-.82-.47-1.73-.47-2.73s.16-1.88.48-2.69c.32-.81.76-1.5,1.32-2.09Z"/>
      <path class="cls-1" d="M495.88,85.41c-.89-.93-1.94-1.65-3.16-2.16-1.21-.51-2.54-.77-3.98-.77s-2.74.26-3.95.77c-1.21.51-2.27,1.23-3.17,2.15-.9.92-1.6,2.01-2.09,3.26-.49,1.25-.74,2.62-.74,4.1s.25,2.85.74,4.1c.49,1.25,1.19,2.34,2.09,3.26.9.92,1.96,1.64,3.17,2.15,1.21.51,2.53.77,3.95.77s2.77-.26,3.98-.77c1.21-.51,2.27-1.23,3.16-2.16.89-.93,1.58-2.02,2.08-3.27.49-1.25.74-2.61.74-4.07s-.25-2.84-.74-4.08c-.49-1.24-1.19-2.33-2.08-3.26ZM494.47,95.43c-.31.82-.74,1.53-1.29,2.15-.55.62-1.2,1.09-1.95,1.42-.75.33-1.58.5-2.49.5s-1.72-.17-2.48-.5c-.76-.33-1.41-.8-1.96-1.41-.55-.61-.98-1.32-1.28-2.15-.3-.83-.45-1.72-.45-2.69s.15-1.89.45-2.7c.3-.82.73-1.53,1.28-2.13.55-.61,1.2-1.08,1.96-1.41.76-.33,1.58-.5,2.48-.5s1.74.17,2.49.5c.75.33,1.4.81,1.95,1.42.55.62.98,1.33,1.29,2.15.31.82.47,1.71.47,2.67s-.16,1.86-.47,2.67Z"/>
      <path class="cls-1" d="M515.31,94.83c0,.89-.2,1.68-.61,2.38-.41.69-.96,1.25-1.66,1.66-.7.42-1.49.63-2.36.63-.8,0-1.54-.21-2.22-.63-.68-.42-1.23-.97-1.64-1.66-.41-.69-.61-1.48-.61-2.38v-12.04h-3.73v12.29c0,1.5.36,2.84,1.07,4.03.71,1.19,1.68,2.12,2.92,2.79,1.23.67,2.64,1.01,4.21,1.01s3.01-.34,4.24-1.01c1.23-.67,2.2-1.6,2.92-2.79.71-1.19,1.07-2.53,1.07-4.03v-12.29h-3.58v12.04Z"/>
      <path class="cls-1" d="M537.71,88.8c0,.82,0,1.59.03,2.32.02.73.04,1.43.07,2.09.03.66.07,1.3.11,1.91.05.61.1,1.19.16,1.75.02.17.04.33.06.49l-10.79-14.53h-3.33v19.92h3.67v-7.71c0-.27,0-.55-.01-.84,0-.29-.03-.62-.06-.98-.03-.36-.06-.81-.1-1.35-.04-.54-.09-1.19-.16-1.93-.04-.41-.08-.88-.12-1.38l10.75,14.2h3.39v-19.92h-3.67v5.97Z"/>
      <polygon class="cls-1" points="545.02 86.24 550.71 86.24 550.71 102.74 554.41 102.74 554.41 86.24 560.27 86.24 560.27 82.82 545.02 82.82 545.02 86.24"/>
      <polygon class="cls-1" points="563.31 86.09 566.58 86.09 566.58 99.47 563.31 99.47 563.31 102.74 573.55 102.74 573.55 99.47 570.28 99.47 570.28 86.09 573.55 86.09 573.55 82.82 563.31 82.82 563.31 86.09"/>
      <path class="cls-1" d="M591.96,88.8c0,.82,0,1.59.03,2.32.02.73.04,1.43.07,2.09.03.66.07,1.3.11,1.91.05.61.1,1.19.16,1.75.02.17.04.33.06.49l-10.79-14.53h-3.33v19.92h3.67v-7.71c0-.27,0-.55-.01-.84,0-.29-.03-.62-.06-.98-.03-.36-.06-.81-.1-1.35-.04-.54-.09-1.19-.16-1.93-.04-.41-.08-.88-.12-1.38l10.75,14.2h3.39v-19.92h-3.67v5.97Z"/>
      <path class="cls-1" d="M618.99,92.88c-.02-.26-.05-.49-.09-.7h-9.02v3.3h5.38v.03c0,.57-.13,1.1-.38,1.59-.26.49-.62.92-1.1,1.29-.47.37-1.01.66-1.62.87-.61.21-1.26.31-1.96.31-.93,0-1.81-.18-2.63-.53-.83-.35-1.55-.84-2.18-1.47-.63-.63-1.11-1.36-1.47-2.19-.35-.83-.53-1.72-.53-2.65s.17-1.86.51-2.67c.34-.82.81-1.53,1.41-2.13.6-.61,1.3-1.08,2.11-1.42.81-.34,1.68-.51,2.63-.51.64,0,1.27.09,1.88.28.61.19,1.19.46,1.75.8.56.34,1.1.77,1.64,1.28l2.33-2.45c-.51-.64-1.16-1.22-1.93-1.74-.78-.51-1.65-.91-2.62-1.19-.97-.28-1.97-.43-3.02-.43-1.48,0-2.86.26-4.14.77-1.28.51-2.39,1.23-3.34,2.15-.95.92-1.68,2-2.2,3.24-.52,1.24-.78,2.58-.78,4.03s.26,2.81.77,4.05c.51,1.24,1.24,2.33,2.18,3.26.94.93,2.04,1.65,3.31,2.18,1.27.52,2.66.78,4.15.78,1.27,0,2.45-.21,3.54-.64,1.09-.43,2.05-1.03,2.87-1.81.83-.78,1.47-1.7,1.92-2.77.46-1.07.68-2.26.68-3.57,0-.17,0-.37-.01-.61,0-.24-.02-.48-.04-.74Z"/>
      <polygon class="cls-1" points="0 45.18 0 61.71 49.59 61.71 57.86 53.44 57.86 36.91 8.27 36.91 0 45.18"/>
      <path class="cls-1" d="M124.82,32.9c-2-1.35-4.43-2.33-7.25-2.96v-.34c1.77-.58,3.31-1.34,4.61-2.28,3.41-2.46,5.12-5.98,5.12-10.57,0-4.19-1.83-7.39-5.49-9.6-3.66-2.21-8.99-3.31-15.97-3.31h-24.82v1.43l6.46,5.11v44.78l-6.46,5.11v1.43h25.32c5.03,0,9.35-.74,12.96-2.22,3.61-1.48,6.37-3.59,8.3-6.33,1.93-2.74,2.89-5.98,2.89-9.73,0-4.47-1.89-7.98-5.66-10.52ZM97.02,8.21h7.8c8.27,0,12.41,3.55,12.41,10.65,0,3.19-.85,5.63-2.56,7.34-1.71,1.71-4.15,2.59-7.34,2.64l-10.31.25V8.21ZM116.35,54.12c-2.43,2.15-5.8,3.23-10.1,3.23h-9.22v-24.07h10.4c3.97,0,7.06,1.02,9.27,3.06,2.21,2.04,3.31,5.02,3.31,8.93s-1.22,6.7-3.65,8.85Z"/>
      <path class="cls-1" d="M177.22,20.95h-2.09l-12.69,4.51v1.34l5.93,4.47v20.05c-1.4,1.37-2.82,2.43-4.26,3.19-1.89,1-3.98,1.5-6.26,1.5-2.89,0-4.94-.81-6.13-2.42-1.2-1.61-1.8-4.28-1.8-8.01v-24.54h-2.09l-12.35,4.42v1.42l5.51,4.35v16.86c0,4.9,1.09,8.58,3.26,11.06,2.17,2.48,5.4,3.71,9.68,3.71,2.67,0,5.09-.57,7.26-1.71,2.17-1.14,4.59-3.1,7.26-5.88h.67l2.42,7.51h1.59l9.52-5.09v-1.42l-5.43-4.09v-31.21Z"/>
      <path class="cls-1" d="M215.44,39.98c-1.95-.89-4.02-1.61-6.22-2.17-2.2-.56-4.27-1.13-6.22-1.71-1.95-.58-3.55-1.32-4.8-2.21-1.25-.89-1.88-2.14-1.88-3.76s.76-2.99,2.3-3.97c1.53-.97,3.57-1.46,6.14-1.46,1.65,0,3.25.31,4.81.89l6.21,8.04h1.5l4.42-9.1c-1.45-.89-3.08-1.64-4.88-2.25-1.81-.61-3.69-1.09-5.63-1.42-1.95-.33-3.87-.5-5.76-.5-5.34,0-9.57,1.07-12.69,3.21-3.12,2.14-4.67,5.11-4.67,8.89,0,2.45.63,4.41,1.88,5.88,1.25,1.48,2.84,2.66,4.76,3.55,1.92.89,3.98,1.61,6.18,2.17,2.2.56,4.27,1.13,6.22,1.71,1.95.58,3.55,1.34,4.8,2.25,1.25.92,1.88,2.21,1.88,3.88,0,1.89-.88,3.45-2.63,4.67-1.75,1.22-4.05,1.84-6.89,1.84-2.39,0-4.48-.38-6.26-1.13-.08-.03-.14-.08-.22-.11l-6.04-8.45h-1.5l-4.34,9.18c1.5,1,3.24,1.87,5.22,2.59,1.97.72,4.05,1.29,6.22,1.71,2.17.42,4.31.63,6.43.63,5.9,0,10.43-1.15,13.61-3.46,3.17-2.31,4.76-5.58,4.76-9.81,0-2.5-.63-4.51-1.88-6.01-1.25-1.5-2.85-2.7-4.8-3.59Z"/>
      <polygon class="cls-1" points="255.43 22.62 260.86 27.52 251.21 54.2 239.47 27.73 244.66 22.62 244.66 21.37 225.63 21.37 225.63 22.62 230.32 28.09 245.97 63.41 231.05 74.21 231.05 75.38 238.9 82.72 240.4 82.72 268.22 28.03 272.96 22.62 272.96 21.37 255.43 21.37 255.43 22.62"/>
      <path class="cls-1" d="M323.59,32.28c-1.24-.9-2.64-1.6-4.17-2.15,1.93-.86,3.49-2.09,4.66-3.72,1.62-2.26,2.44-5.04,2.44-8.35,0-2.98-.7-5.52-2.11-7.65-1.41-2.12-3.49-3.75-6.24-4.88-2.76-1.13-6.12-1.69-10.08-1.69h-25.54v57.86h26.37c3.03,0,5.8-.36,8.31-1.07,2.51-.72,4.7-1.82,6.57-3.31,1.87-1.49,3.31-3.32,4.3-5.5.99-2.18,1.49-4.72,1.49-7.65,0-2.53-.52-4.81-1.57-6.82-1.05-2.01-2.52-3.71-4.42-5.08ZM295.78,15.58h9.84c2.42,0,4.24.51,5.46,1.53,1.21,1.02,1.82,2.41,1.82,4.17,0,1.21-.26,2.25-.79,3.1-.52.85-1.3,1.52-2.31,1.98-1.02.47-2.25.7-3.68.7h-10.33v-11.49ZM314.87,47.03c-.61.96-1.45,1.69-2.52,2.19-1.07.5-2.38.74-3.93.74h-12.65v-12.4h12.23c1.6,0,2.98.24,4.13.7,1.16.47,2.05,1.14,2.69,2.03.63.88.95,1.96.95,3.22,0,1.38-.3,2.55-.91,3.51Z"/>
      <path class="cls-1" d="M367.63,43.91c0,1.11-.2,2.13-.58,3.05-.39.92-.93,1.73-1.63,2.42-.7.7-1.53,1.24-2.5,1.63-.97.39-2.05.58-3.21.58-1.56,0-2.89-.35-4.01-1.04-1.11-.7-1.95-1.68-2.5-2.96-.56-1.28-.83-2.81-.83-4.59v-25.54h-13.44v27.38c0,3.73.63,6.93,1.88,9.6,1.25,2.67,3.03,4.72,5.34,6.13,2.31,1.42,5.1,2.13,8.39,2.13,2.45,0,4.76-.49,6.93-1.46,2.17-.97,4.03-2.28,5.59-3.92.38-.4.73-.81,1.05-1.24l.37,5.7h12.6V17.45h-13.44v26.46Z"/>
      <rect class="cls-1" x="393.76" y="17.45" width="13.36" height="44.32"/>
      <path class="cls-1" d="M450.73,59.73c2.98,1.98,6.39,2.96,10.23,2.96,2.06,0,4.02-.29,5.88-.88,1.86-.58,3.52-1.36,4.97-2.34,1.13-.76,2.09-1.61,2.89-2.56l.36,4.85h12.44V0h-13.44v21.79c-.65-.66-1.36-1.27-2.17-1.84-1.5-1.06-3.17-1.89-5.01-2.5-1.84-.61-3.76-.92-5.76-.92-3.9,0-7.35,1-10.35,3.01-3,2-5.37,4.75-7.1,8.22-1.73,3.48-2.59,7.44-2.59,11.89s.86,8.42,2.59,11.9c1.72,3.48,4.08,6.21,7.05,8.18ZM455.61,33.31c.83-1.78,1.99-3.17,3.46-4.17,1.47-1,3.24-1.5,5.3-1.5s3.84.5,5.34,1.5c1.5,1,2.66,2.39,3.46,4.17.81,1.78,1.21,3.9,1.21,6.34s-.4,4.48-1.21,6.26c-.81,1.78-1.96,3.17-3.46,4.17-1.5,1-3.28,1.5-5.34,1.5s-3.83-.5-5.3-1.5c-1.48-1-2.63-2.39-3.46-4.17-.83-1.78-1.25-3.87-1.25-6.26s.42-4.56,1.25-6.34Z"/>
      <path class="cls-1" d="M531.9,59.77c1.95-.95,3.78-2.17,5.51-3.67l-6.26-8.85c-1.73,1.34-3.33,2.28-4.8,2.84-1.48.56-3.16.83-5.05.83-2.73,0-5.08-.5-7.05-1.5-1.98-1-3.48-2.41-4.51-4.22-.48-.83-.84-1.74-1.09-2.71h30.43l.08-3.59c.11-3.23-.33-6.2-1.34-8.93-1-2.73-2.45-5.09-4.34-7.1-1.89-2-4.13-3.56-6.72-4.67-2.59-1.11-5.44-1.67-8.56-1.67-3.28,0-6.3.57-9.06,1.71-2.75,1.14-5.13,2.75-7.14,4.84-2,2.09-3.56,4.55-4.67,7.39-1.11,2.84-1.67,5.96-1.67,9.35,0,4.4,1,8.31,3,11.73,2,3.42,4.81,6.12,8.43,8.1,3.62,1.98,7.87,2.96,12.77,2.96,2,0,4.02-.24,6.05-.71,2.03-.47,4.02-1.18,5.97-2.13ZM509.37,32.76c.78-1.64,1.93-2.89,3.46-3.76,1.53-.86,3.38-1.29,5.55-1.29,1.56,0,2.95.31,4.17.92,1.22.61,2.21,1.46,2.96,2.55.75,1.08,1.18,2.32,1.29,3.71v.08h-18.19c.19-.79.42-1.54.74-2.21Z"/>
      <path class="cls-1" d="M576.52,16.78c-.86-.17-1.8-.25-2.8-.25-2.34,0-4.54.56-6.59,1.67-2.06,1.11-3.85,2.62-5.38,4.51-.4.49-.76,1-1.1,1.53l-.27-6.79h-12.69v44.32h13.44v-22.2c0-1.34.21-2.53.63-3.59.42-1.06.99-1.97,1.71-2.75.72-.78,1.61-1.38,2.67-1.79,1.06-.42,2.2-.63,3.42-.63,1.11,0,2.18.13,3.21.38,1.03.25,1.85.57,2.46.96l3.67-14.78c-.72-.22-1.52-.42-2.38-.58Z"/>
      <path class="cls-1" d="M604.98,51.96c-.42.31-.93.54-1.54.71-.61.17-1.31.25-2.09.25-1.95,0-4.01-.4-6.18-1.21-2.17-.81-4.12-2.07-5.84-3.8l-8.1,7.01c1.95,2.34,4.58,4.2,7.89,5.59,3.31,1.39,7.14,2.09,11.48,2.09,3.56,0,6.73-.63,9.52-1.88,2.78-1.25,4.97-2.98,6.55-5.18,1.59-2.2,2.38-4.72,2.38-7.55,0-1.45-.22-2.8-.67-4.05-.45-1.25-1.11-2.35-2-3.3-1.11-1.22-2.62-2.28-4.51-3.17-1.89-.89-4.15-1.7-6.76-2.42-2.12-.61-3.79-1.13-5.01-1.54-1.23-.42-2.12-.79-2.67-1.13-.56-.33-.99-.75-1.29-1.25-.31-.5-.46-1.03-.46-1.59s.11-1.04.33-1.46c.22-.42.56-.78,1-1.08.44-.31.99-.53,1.63-.67.64-.14,1.38-.21,2.21-.21,1.11,0,2.34.22,3.67.67,1.34.45,2.63,1.04,3.88,1.79,1.25.75,2.38,1.6,3.38,2.55l7.01-7.85c-1.5-1.39-3.21-2.59-5.13-3.59-1.92-1-3.99-1.78-6.22-2.34-2.23-.56-4.56-.83-7.01-.83-2.28,0-4.49.32-6.64.96-2.14.64-4.04,1.57-5.68,2.8-1.64,1.22-2.95,2.67-3.92,4.34-.97,1.67-1.46,3.53-1.46,5.59,0,1.78.31,3.38.92,4.8.61,1.42,1.47,2.71,2.59,3.88,1.22,1.22,2.8,2.3,4.72,3.21,1.92.92,4.19,1.71,6.8,2.38,1.84.5,3.34.95,4.51,1.34,1.17.39,2,.72,2.5,1,1,.61,1.5,1.48,1.5,2.59,0,.56-.11,1.04-.33,1.46-.22.42-.54.78-.96,1.09Z"/>
      <rect class="cls-1" x="419.72" width="13.36" height="61.77"/>
    </g>
  </g>
</svg>