<?xml version="1.0" encoding="UTF-8"?>
<svg id="Layer_2" data-name="Layer 2" xmlns="http://www.w3.org/2000/svg" viewBox="0 0 350 131.23">
  <defs>
    <style>
      .cls-1 {
        fill: #fff;
      }
    </style>
  </defs>
  <g id="Camada_1" data-name="Camada 1">
    <g>
      <polygon class="cls-1" points="0 14.43 0 43.29 86.59 43.29 101.02 28.86 101.02 0 14.43 0 0 14.43"/>
      <polygon class="cls-1" points="0 72.16 0 101.02 86.59 101.02 101.02 86.59 101.02 57.72 14.43 57.72 0 72.16"/>
      <path class="cls-1" d="M129.25,117.67l-5.22,13.37h2.48l1.16-3.06h5.35l1.15,3.06h2.58l-5.18-13.37h-2.33ZM128.49,125.83l.89-2.33c.09-.25.19-.54.3-.86.11-.32.22-.65.33-.99s.22-.67.32-.99c0-.03.02-.05.03-.08.1.33.21.69.34,1.07.13.39.25.75.35,1.08.11.33.19.57.26.73l.9,2.39h-3.72Z"/>
      <path class="cls-1" d="M141.31,121.15c.38-.39.82-.7,1.34-.92.52-.22,1.07-.32,1.65-.32.39,0,.78.06,1.16.18.38.12.74.3,1.09.54.35.24.69.53,1.02.87l1.59-1.74c-.34-.45-.77-.84-1.28-1.18s-1.07-.6-1.68-.79c-.61-.19-1.24-.29-1.89-.29-.96,0-1.84.17-2.66.52s-1.53.83-2.14,1.45-1.09,1.35-1.43,2.18c-.34.83-.52,1.73-.52,2.69s.16,1.93.49,2.78c.32.85.78,1.58,1.37,2.2.59.62,1.28,1.09,2.08,1.42.8.33,1.69.5,2.66.5.62,0,1.25-.08,1.88-.24s1.2-.38,1.71-.66c.51-.28.92-.59,1.22-.94l-1.22-1.97c-.28.28-.59.53-.93.74s-.7.37-1.1.49c-.39.11-.8.17-1.22.17-.65,0-1.25-.11-1.79-.32-.54-.21-1.01-.51-1.39-.91-.39-.39-.69-.87-.9-1.41-.21-.55-.32-1.16-.32-1.83s.11-1.26.32-1.81c.22-.54.51-1.01.89-1.4Z"/>
      <path class="cls-1" d="M154.38,121.15c.38-.39.82-.7,1.34-.92.52-.22,1.07-.32,1.65-.32.39,0,.78.06,1.16.18.38.12.74.3,1.09.54.35.24.69.53,1.02.87l1.59-1.74c-.34-.45-.77-.84-1.28-1.18-.51-.34-1.07-.6-1.68-.79-.61-.19-1.24-.29-1.89-.29-.96,0-1.84.17-2.66.52-.82.34-1.53.83-2.14,1.45s-1.09,1.35-1.43,2.18c-.34.83-.52,1.73-.52,2.69s.16,1.93.49,2.78c.32.85.78,1.58,1.37,2.2.59.62,1.28,1.09,2.08,1.42.8.33,1.69.5,2.66.5.62,0,1.25-.08,1.88-.24s1.2-.38,1.71-.66c.51-.28.92-.59,1.22-.94l-1.22-1.97c-.28.28-.59.53-.93.74s-.7.37-1.1.49c-.39.11-.8.17-1.22.17-.65,0-1.25-.11-1.79-.32-.54-.21-1.01-.51-1.39-.91-.39-.39-.69-.87-.9-1.41-.21-.55-.32-1.16-.32-1.83s.11-1.26.32-1.81c.22-.54.51-1.01.89-1.4Z"/>
      <path class="cls-1" d="M175.18,119.41c-.6-.62-1.31-1.11-2.12-1.45-.82-.34-1.71-.52-2.67-.52s-1.84.17-2.66.52c-.82.34-1.53.83-2.13,1.44-.6.62-1.07,1.35-1.4,2.19-.33.84-.5,1.76-.5,2.75s.17,1.91.5,2.75c.33.84.8,1.57,1.4,2.19.6.62,1.32,1.1,2.13,1.44.82.34,1.7.52,2.66.52s1.86-.17,2.67-.52c.82-.34,1.52-.83,2.12-1.45.6-.62,1.06-1.36,1.39-2.2.33-.84.5-1.75.5-2.73s-.17-1.91-.5-2.74c-.33-.83-.8-1.56-1.39-2.19ZM174.23,126.13c-.21.55-.5,1.03-.87,1.44-.37.41-.81.73-1.31.96s-1.06.33-1.67.33-1.15-.11-1.66-.33c-.51-.22-.95-.54-1.32-.95-.37-.41-.66-.89-.86-1.44-.2-.55-.31-1.16-.31-1.81s.1-1.27.31-1.81c.2-.55.49-1.03.86-1.43.37-.41.81-.72,1.32-.95.51-.22,1.06-.33,1.66-.33s1.17.11,1.67.33c.5.22.94.54,1.31.96.37.41.66.9.87,1.44.21.55.32,1.15.32,1.8s-.11,1.25-.32,1.8Z"/>
      <path class="cls-1" d="M188.23,125.73c0,.6-.14,1.13-.41,1.6-.27.47-.65.84-1.12,1.12-.47.28-1,.42-1.59.42-.54,0-1.03-.14-1.49-.42-.46-.28-.82-.65-1.1-1.12-.27-.46-.41-1-.41-1.6v-8.08h-2.5v8.25c0,1.01.24,1.91.72,2.7.48.8,1.13,1.42,1.96,1.87.83.45,1.77.68,2.83.68s2.02-.23,2.85-.68c.83-.45,1.48-1.08,1.96-1.87.48-.8.72-1.7.72-2.7v-8.25h-2.41v8.08Z"/>
      <path class="cls-1" d="M203.26,121.68c0,.55,0,1.07.02,1.56.01.49.03.96.05,1.4.02.45.04.87.08,1.28.03.41.07.8.11,1.18.01.11.03.22.04.33l-7.24-9.76h-2.24v13.37h2.46v-5.18c0-.18,0-.37,0-.56,0-.2-.02-.42-.04-.66-.02-.24-.04-.54-.07-.91-.03-.36-.06-.8-.11-1.3-.02-.28-.05-.59-.08-.93l7.22,9.54h2.27v-13.37h-2.46v4.01Z"/>
      <polygon class="cls-1" points="208.17 119.96 212 119.96 212 131.04 214.48 131.04 214.48 119.96 218.42 119.96 218.42 117.67 208.17 117.67 208.17 119.96"/>
      <polygon class="cls-1" points="220.46 119.87 222.66 119.87 222.66 128.85 220.46 128.85 220.46 131.04 227.34 131.04 227.34 128.85 225.14 128.85 225.14 119.87 227.34 119.87 227.34 117.67 220.46 117.67 220.46 119.87"/>
      <path class="cls-1" d="M239.7,121.68c0,.55,0,1.07.02,1.56.01.49.03.96.05,1.4.02.45.04.87.08,1.28.03.41.07.8.11,1.18.01.11.03.22.04.33l-7.24-9.76h-2.24v13.37h2.46v-5.18c0-.18,0-.37,0-.56,0-.2-.02-.42-.04-.66-.02-.24-.04-.54-.07-.91-.03-.36-.06-.8-.11-1.3-.02-.28-.05-.59-.08-.93l7.22,9.54h2.27v-13.37h-2.46v4.01Z"/>
      <path class="cls-1" d="M257.85,124.42c-.01-.17-.03-.33-.06-.47h-6.06v2.22h3.61v.02c0,.38-.09.74-.26,1.07-.17.33-.42.62-.74.87-.32.25-.68.44-1.09.58-.41.14-.85.21-1.32.21-.62,0-1.21-.12-1.77-.35-.55-.24-1.04-.56-1.46-.98-.42-.42-.75-.91-.98-1.47-.24-.56-.35-1.15-.35-1.78s.11-1.25.34-1.8c.23-.55.54-1.03.95-1.43.4-.41.87-.73,1.41-.96.54-.23,1.13-.34,1.77-.34.43,0,.85.06,1.26.19.41.13.8.31,1.18.53.38.23.74.52,1.1.86l1.57-1.64c-.34-.43-.78-.82-1.3-1.17-.52-.34-1.11-.61-1.76-.8-.65-.19-1.33-.29-2.03-.29-.99,0-1.92.17-2.78.52-.86.34-1.61.82-2.25,1.44-.64.62-1.13,1.34-1.48,2.18-.35.83-.53,1.74-.53,2.7s.17,1.89.52,2.72c.34.83.83,1.56,1.46,2.19.63.62,1.37,1.11,2.23,1.46.85.35,1.78.53,2.79.53.85,0,1.65-.14,2.38-.43.73-.29,1.38-.69,1.93-1.21.55-.52.98-1.14,1.29-1.86.31-.72.46-1.52.46-2.4,0-.11,0-.25,0-.41s-.02-.32-.03-.5Z"/>
      <path class="cls-1" d="M134.79,38.86h6.25c3.38,0,6.28-.5,8.7-1.49,2.42-.99,4.28-2.41,5.58-4.25,1.29-1.84,1.94-4.02,1.94-6.53,0-3-1.27-5.36-3.8-7.07-1.34-.91-2.97-1.56-4.87-1.99v-.23c1.19-.39,2.22-.9,3.1-1.53,2.29-1.65,3.44-4.02,3.44-7.1,0-2.82-1.23-4.96-3.69-6.45-2.46-1.48-6.03-2.22-10.73-2.22h-16.67v.96l4.34,3.43v30.07l-4.34,3.43v.96h10.76ZM134.79,2.93h5.24c5.56,0,8.33,2.38,8.33,7.15,0,2.14-.57,3.78-1.72,4.93-1.15,1.15-2.79,1.74-4.93,1.77l-6.93.17V2.93ZM134.79,19.77h6.98c2.67,0,4.74.69,6.22,2.06,1.48,1.37,2.22,3.37,2.22,6s-.82,4.5-2.45,5.94c-1.63,1.45-3.89,2.17-6.79,2.17h-6.19v-16.16Z"/>
      <path class="cls-1" d="M188.64,11.49h-1.4l-8.52,3.03v.9l3.98,3v13.46c-.94.92-1.9,1.63-2.86,2.14-1.27.67-2.67,1.01-4.2,1.01-1.94,0-3.32-.54-4.12-1.63-.8-1.08-1.21-2.88-1.21-5.38V11.54h-1.4l-8.3,2.97v.95l3.7,2.92v11.32c0,3.29.73,5.76,2.19,7.43,1.46,1.66,3.62,2.49,6.5,2.49,1.79,0,3.42-.38,4.88-1.15,1.46-.77,3.08-2.08,4.88-3.95h.45l1.63,5.05h1.06l6.39-3.42v-.95l-3.64-2.75V11.49Z"/>
      <path class="cls-1" d="M211.43,35.42c-1.18.82-2.72,1.23-4.62,1.23-1.61,0-3.01-.25-4.2-.76-.05-.02-.1-.05-.15-.07l-4.06-5.67h-1.01l-2.92,6.17c1.01.67,2.18,1.25,3.5,1.74,1.33.49,2.72.87,4.18,1.15,1.46.28,2.9.42,4.32.42,3.96,0,7.01-.78,9.14-2.33,2.13-1.55,3.19-3.75,3.19-6.59,0-1.68-.42-3.03-1.26-4.04-.84-1.01-1.92-1.81-3.22-2.41-1.31-.6-2.7-1.08-4.18-1.46-1.48-.37-2.87-.76-4.18-1.15-1.31-.39-2.38-.89-3.22-1.49-.84-.6-1.26-1.44-1.26-2.52s.51-2.01,1.54-2.66c1.03-.65,2.4-.98,4.12-.98,1.11,0,2.18.21,3.23.6l4.17,5.4h1.01l2.97-6.11c-.97-.6-2.07-1.1-3.28-1.51-1.22-.41-2.48-.73-3.78-.95-1.31-.22-2.6-.34-3.87-.34-3.59,0-6.43.72-8.52,2.16-2.09,1.44-3.14,3.43-3.14,5.97,0,1.64.42,2.96,1.26,3.95.84.99,1.91,1.78,3.2,2.38,1.29.6,2.67,1.08,4.15,1.46,1.48.37,2.87.76,4.18,1.15,1.31.39,2.38.9,3.22,1.51.84.62,1.26,1.49,1.26,2.61,0,1.27-.59,2.32-1.77,3.14Z"/>
      <polygon class="cls-1" points="249.75 16.24 252.93 12.61 252.93 11.77 241.16 11.77 241.16 12.61 244.81 15.9 238.33 33.82 230.45 16.04 233.93 12.61 233.93 11.77 221.15 11.77 221.15 12.61 224.3 16.28 234.81 40 224.79 47.25 224.79 48.04 230.06 52.97 231.07 52.97 249.75 16.24"/>
      <path class="cls-1" d="M147.31,100.3c1.68-.48,3.15-1.22,4.41-2.22,1.26-1,2.22-2.23,2.89-3.69.67-1.46,1-3.17,1-5.13,0-1.7-.35-3.23-1.05-4.58-.7-1.35-1.69-2.49-2.97-3.41-.83-.6-1.77-1.07-2.8-1.44,1.3-.57,2.34-1.4,3.13-2.5,1.09-1.52,1.64-3.39,1.64-5.61,0-2-.47-3.71-1.42-5.13-.94-1.42-2.34-2.52-4.19-3.28-1.85-.76-4.11-1.14-6.77-1.14h-17.15v38.86h17.71c2.03,0,3.89-.24,5.58-.72ZM132.91,70.04h6.61c1.63,0,2.85.34,3.66,1.03.81.69,1.22,1.62,1.22,2.8,0,.81-.18,1.51-.53,2.08-.35.57-.87,1.02-1.55,1.33-.69.31-1.51.47-2.47.47h-6.94v-7.72ZM132.91,93.14v-8.33h8.21c1.07,0,2,.16,2.78.47.78.32,1.38.77,1.8,1.36.42.59.64,1.31.64,2.16,0,.93-.2,1.71-.61,2.36-.41.65-.97,1.14-1.69,1.47-.72.33-1.6.5-2.64.5h-8.49Z"/>
      <path class="cls-1" d="M166.73,100.25c1.55.95,3.43,1.43,5.63,1.43,1.64,0,3.2-.33,4.65-.98,1.46-.65,2.71-1.53,3.76-2.63.25-.27.49-.54.71-.83l.25,3.83h8.46v-29.77h-9.02v17.77c0,.75-.13,1.43-.39,2.05-.26.62-.63,1.16-1.09,1.63-.47.47-1.03.83-1.68,1.09-.65.26-1.37.39-2.16.39-1.05,0-1.94-.23-2.69-.7-.75-.47-1.31-1.13-1.68-1.99-.37-.86-.56-1.89-.56-3.08v-17.15h-9.03v18.39c0,2.5.42,4.65,1.26,6.45.84,1.79,2.04,3.17,3.59,4.12Z"/>
      <rect class="cls-1" x="198.71" y="71.29" width="8.97" height="29.77"/>
      <path class="cls-1" d="M206.5,60.59c-.78-.67-1.88-1.01-3.29-1.01s-2.47.36-3.29,1.08c-.81.72-1.22,1.64-1.22,2.77,0,1.25.4,2.22,1.2,2.89.8.67,1.9,1.01,3.31,1.01s2.47-.36,3.26-1.08c.8-.72,1.2-1.66,1.2-2.82,0-1.22-.39-2.17-1.17-2.84Z"/>
      <rect class="cls-1" x="216.14" y="59.58" width="8.97" height="41.48"/>
      <path class="cls-1" d="M252.63,74.21c-.43-.44-.92-.85-1.46-1.23-1.01-.71-2.13-1.27-3.36-1.68-1.23-.41-2.52-.62-3.87-.62-2.62,0-4.93.67-6.95,2.02-2.02,1.35-3.61,3.19-4.76,5.52-1.16,2.34-1.74,5-1.74,7.99s.58,5.65,1.74,7.99c1.16,2.34,2.74,4.17,4.74,5.49,2,1.33,4.29,1.99,6.87,1.99,1.38,0,2.7-.2,3.95-.59,1.25-.39,2.36-.92,3.34-1.57.76-.51,1.4-1.08,1.94-1.72l.24,3.26h8.35v-41.48h-9.02v14.63ZM252.04,90.41c-.54,1.2-1.32,2.13-2.33,2.8-1.01.67-2.21,1.01-3.59,1.01s-2.57-.34-3.56-1.01c-.99-.67-1.77-1.61-2.33-2.8-.56-1.2-.84-2.6-.84-4.2s.28-3.06.84-4.26c.56-1.2,1.34-2.13,2.33-2.8.99-.67,2.18-1.01,3.56-1.01s2.58.34,3.59,1.01c1.01.67,1.78,1.61,2.33,2.8.54,1.2.81,2.62.81,4.26s-.27,3.01-.81,4.2Z"/>
      <path class="cls-1" d="M292.54,74.94c-1.27-1.35-2.78-2.39-4.51-3.14-1.74-.75-3.65-1.12-5.75-1.12-2.21,0-4.23.38-6.08,1.15-1.85.77-3.45,1.85-4.79,3.25-1.35,1.4-2.39,3.06-3.14,4.96-.75,1.91-1.12,4-1.12,6.28,0,2.95.67,5.58,2.02,7.88,1.35,2.3,3.23,4.11,5.66,5.44,2.43,1.33,5.29,1.99,8.58,1.99,1.35,0,2.7-.16,4.06-.48,1.36-.32,2.7-.79,4.01-1.43,1.31-.64,2.54-1.46,3.7-2.47l-4.2-5.94c-1.16.9-2.23,1.53-3.22,1.91-.99.37-2.12.56-3.39.56-1.83,0-3.41-.34-4.74-1.01-1.33-.67-2.34-1.62-3.03-2.83-.32-.56-.56-1.17-.73-1.82h20.44l.06-2.41c.07-2.17-.22-4.17-.9-6-.67-1.83-1.64-3.42-2.92-4.76ZM288.06,83.07h-12.21c.13-.53.28-1.04.5-1.49.52-1.1,1.3-1.94,2.33-2.52,1.03-.58,2.27-.87,3.73-.87,1.05,0,1.98.21,2.8.62.82.41,1.49.98,1.99,1.71.5.73.79,1.56.87,2.49v.06Z"/>
      <path class="cls-1" d="M319.56,70.68c-1.57,0-3.05.37-4.43,1.12-1.38.75-2.59,1.76-3.62,3.03-.27.33-.51.67-.74,1.03l-.18-4.56h-8.52v29.77h9.03v-14.91c0-.9.14-1.7.42-2.41.28-.71.66-1.33,1.15-1.85.49-.52,1.08-.92,1.79-1.21.71-.28,1.48-.42,2.3-.42.75,0,1.47.08,2.16.25.69.17,1.24.38,1.65.64l2.47-9.92c-.49-.15-1.02-.28-1.6-.39-.58-.11-1.21-.17-1.88-.17Z"/>
      <path class="cls-1" d="M349.55,89.09c-.3-.84-.75-1.58-1.35-2.21-.75-.82-1.76-1.53-3.03-2.13-1.27-.6-2.78-1.14-4.54-1.63-1.42-.41-2.54-.76-3.36-1.04-.82-.28-1.42-.53-1.79-.76-.37-.22-.66-.5-.87-.84-.21-.34-.31-.69-.31-1.07s.07-.7.22-.98c.15-.28.37-.52.67-.73.3-.21.66-.35,1.09-.45.43-.09.92-.14,1.49-.14.75,0,1.57.15,2.47.45.9.3,1.77.7,2.61,1.21s1.6,1.07,2.27,1.71l4.71-5.27c-1.01-.93-2.16-1.74-3.45-2.41-1.29-.67-2.68-1.2-4.18-1.57-1.5-.37-3.07-.56-4.71-.56-1.53,0-3.02.22-4.46.64-1.44.43-2.71,1.06-3.81,1.88-1.1.82-1.98,1.79-2.63,2.92-.65,1.12-.98,2.37-.98,3.76,0,1.2.21,2.27.62,3.22.41.95.99,1.82,1.74,2.61.82.82,1.88,1.54,3.17,2.16,1.29.62,2.81,1.15,4.57,1.6,1.23.34,2.24.64,3.03.9.79.26,1.35.49,1.68.67.67.41,1.01.99,1.01,1.74,0,.37-.07.7-.22.98-.15.28-.36.52-.64.73-.28.21-.63.36-1.04.48-.41.11-.88.17-1.4.17-1.31,0-2.69-.27-4.15-.81-1.46-.54-2.77-1.39-3.92-2.55l-5.44,4.71c1.31,1.57,3.07,2.82,5.3,3.76,2.22.93,4.79,1.4,7.71,1.4,2.39,0,4.52-.42,6.39-1.26,1.87-.84,3.33-2,4.4-3.48,1.07-1.48,1.6-3.17,1.6-5.07,0-.97-.15-1.88-.45-2.72Z"/>
    </g>
  </g>
</svg>